<svg version="1.1" id="Layer_1" xmlns="http://www.w3.org/2000/svg" xmlns:xlink="http://www.w3.org/1999/xlink" x="0px" y="0px"
	 width="100%" viewBox="0 0 512 512" enable-background="new 0 0 512 512" xml:space="preserve">
<path fill="#E0F4FF" opacity="1.000000" stroke="none" 
	d="
M1.000001,481.000000 
	C1.000000,366.645782 1.000000,252.291550 1.468657,137.468658 
	C84.975372,137.000000 168.013428,136.998657 251.051483,137.007889 
	C253.043594,137.008118 255.035721,137.126373 257.018921,137.646255 
	C257.006653,158.225815 256.979858,178.348709 257.005798,198.471542 
	C257.039703,224.745453 257.115326,251.019302 257.152161,277.615173 
	C257.057983,278.576385 256.984589,279.215576 256.655090,280.095764 
	C243.672119,309.989166 230.939301,339.639008 218.220886,369.295044 
	C211.599243,384.735016 204.897842,400.141998 198.434860,415.648254 
	C194.562744,424.938446 199.547058,434.636200 208.916702,436.690033 
	C216.141006,438.273621 222.903137,434.434174 226.313522,426.566864 
	C236.368835,403.370544 246.348190,380.141357 256.550842,357.293182 
	C256.829620,359.651642 256.988678,361.641937 256.989227,363.632263 
	C257.002960,413.421509 257.000000,463.210754 257.000000,513.000000 
	C183.645767,513.000000 110.291542,513.000000 36.768547,512.676514 
	C35.961910,511.905853 35.384502,511.237152 34.677265,511.044098 
	C19.478004,506.895233 8.946967,497.616486 3.301373,482.827118 
	C3.000877,482.039948 1.788090,481.601044 1.000001,481.000000 
M141.868988,296.350372 
	C153.306335,287.201355 164.830154,278.157654 176.148865,268.864136 
	C183.028793,263.215179 183.896454,254.043808 178.583496,247.497849 
	C173.402344,241.114288 164.407898,239.984299 157.565735,245.409164 
	C132.524063,265.263641 107.562645,285.220642 82.696854,305.294922 
	C74.883423,311.602753 74.872528,322.385345 82.689819,328.698395 
	C107.552238,348.776642 132.550079,368.687531 157.543167,388.603424 
	C161.377014,391.658447 165.812820,392.807831 170.683899,391.458679 
	C176.706116,389.790710 180.495758,385.842072 181.677444,379.770966 
	C182.910858,373.434143 180.354736,368.401489 175.417282,364.458954 
	C157.209091,349.919800 139.000000,335.381683 120.800987,320.831024 
	C119.315636,319.643402 117.904114,318.363434 116.171417,316.880951 
	C124.947945,309.882629 133.139175,303.351013 141.868988,296.350372 
z"/>
<path fill="#B8E0F5" opacity="1.000000" stroke="none" 
	d="
M257.173004,277.293182 
	C257.115326,251.019302 257.039703,224.745453 257.005798,198.471542 
	C256.979858,178.348709 257.006653,158.225815 256.997864,137.549530 
	C256.985748,136.996124 256.956909,136.800262 257.421448,136.885193 
	C342.924011,136.980087 427.962006,136.990051 513.000000,137.000000 
	C513.000000,251.354233 513.000000,365.708466 512.688843,480.237915 
	C511.729523,481.316589 510.848145,482.131836 510.467987,483.136688 
	C504.855194,497.973816 494.279938,507.163452 478.993011,511.126251 
	C478.531128,511.245972 478.325226,512.353210 478.000000,513.000000 
	C404.645782,513.000000 331.291534,513.000000 257.468658,513.000000 
	C257.000000,463.210754 257.002960,413.421509 256.989227,363.632263 
	C256.988678,361.641937 256.829620,359.651642 256.608582,356.996338 
	C256.943970,355.218781 257.415253,354.106262 258.058960,352.678040 
	C277.390869,307.751495 296.586212,263.155975 315.677551,218.515976 
	C319.231476,210.205948 315.709808,201.407440 307.893188,198.062607 
	C300.029236,194.697556 291.696533,198.273346 287.828979,206.731857 
	C286.175812,210.347351 284.637512,214.015442 283.054199,217.662766 
	C274.425903,237.539032 265.799835,257.416290 257.173004,277.293182 
M377.703156,333.200500 
	C364.580841,343.714844 351.425262,354.188049 338.349274,364.759705 
	C331.110535,370.612122 329.931732,379.624054 335.334167,386.402191 
	C340.579620,392.983398 349.616913,394.003632 356.736664,388.354950 
	C381.515045,368.696411 406.229980,348.956818 430.850983,329.101685 
	C439.187775,322.378662 439.277222,311.710785 430.999817,305.026733 
	C406.261841,285.050629 381.379913,265.252533 356.516388,245.432388 
	C352.673340,242.368866 348.243927,241.197098 343.382111,242.506287 
	C337.353271,244.129715 333.533478,248.087234 332.327271,254.146011 
	C331.114777,260.236359 333.355621,265.264496 338.175171,269.125366 
	C356.625763,283.905914 375.088257,298.671631 393.539429,313.451447 
	C394.903442,314.544037 396.212921,315.704681 397.828644,317.071289 
	C390.965424,322.589478 384.622467,327.689362 377.703156,333.200500 
z"/>
<path fill="#0052C2" opacity="1.000000" stroke="none" 
	d="
M257.006775,137.092834 
	C255.035721,137.126373 253.043594,137.008118 251.051483,137.007889 
	C168.013428,136.998657 84.975372,137.000000 1.468657,137.000000 
	C1.000000,102.645775 1.000000,68.291542 1.351720,33.655151 
	C2.366767,32.467041 3.280756,31.653826 3.655384,30.641090 
	C8.390107,17.841650 17.290857,9.310517 29.957300,4.459382 
	C32.099018,3.639122 33.992062,2.169567 36.000000,1.000000 
	C109.354225,1.000000 182.708450,1.000000 256.430176,1.460977 
	C256.864410,2.917222 256.989655,3.912497 256.989563,4.907760 
	C256.985596,48.871929 256.970612,92.836098 256.956909,136.800262 
	C256.956909,136.800262 256.985748,136.996124 257.006775,137.092834 
M147.842422,87.326340 
	C152.876114,80.643242 153.354950,74.374008 149.280685,68.495728 
	C145.735855,63.381321 139.283417,60.864597 133.520477,62.444458 
	C127.098030,64.205109 123.284676,68.495018 122.129684,74.974541 
	C121.118256,80.648567 124.230232,86.782845 129.322815,89.830338 
	C135.119186,93.298996 140.902298,92.661926 147.842422,87.326340 
M204.278091,90.029175 
	C211.591293,84.907700 213.885620,77.804214 210.537033,70.650848 
	C207.441818,64.038750 199.912964,60.571239 193.058228,62.600761 
	C184.699799,65.075485 180.168671,73.316391 182.755661,81.338387 
	C185.651382,90.317673 193.989212,93.934738 204.278091,90.029175 
M62.970577,71.817368 
	C60.825878,79.386520 63.060020,85.926369 69.072281,89.678436 
	C74.857941,93.289078 82.039551,92.646988 87.114677,88.065277 
	C91.925827,83.721886 93.411591,76.549026 90.558182,70.691711 
	C87.930634,65.298042 83.510635,62.248470 77.525581,62.061020 
	C70.865471,61.852421 66.153679,65.161293 62.970577,71.817368 
z"/>
<path fill="#003481" opacity="1.000000" stroke="none" 
	d="
M257.421448,136.885193 
	C256.970612,92.836098 256.985596,48.871929 256.989563,4.907760 
	C256.989655,3.912497 256.864410,2.917222 256.898804,1.460977 
	C330.354218,1.000000 403.708466,1.000000 477.514465,1.379311 
	C478.296906,2.103808 478.571411,2.657846 478.966339,2.764027 
	C493.860443,6.768683 504.535980,15.533613 510.218719,30.101509 
	C510.668274,31.253954 512.050964,32.042393 513.000000,33.000000 
	C513.000000,67.354225 513.000000,101.708458 513.000000,136.531342 
	C427.962006,136.990051 342.924011,136.980087 257.421448,136.885193 
M350.631439,92.000267 
	C379.275146,91.999893 407.918945,92.028008 436.562561,91.981583 
	C445.026031,91.967873 451.756958,85.563332 451.995728,77.535789 
	C452.235474,69.474716 445.682007,62.091419 437.635223,62.057178 
	C407.160187,61.927505 376.683960,61.929218 346.208954,62.060795 
	C338.815430,62.092720 332.218323,69.368515 331.972931,76.734825 
	C331.712677,84.546623 339.277435,93.262749 350.631439,92.000267 
z"/>
<path fill="#000000" opacity="1.000000" stroke="none" 
	d="
M1.000001,481.468658 
	C1.788090,481.601044 3.000877,482.039948 3.301373,482.827118 
	C8.946967,497.616486 19.478004,506.895233 34.677265,511.044098 
	C35.384502,511.237152 35.961910,511.905853 36.299889,512.676514 
	C24.410055,513.000000 12.820111,513.000000 1.000000,513.000000 
	C1.000000,502.646912 1.000000,492.292114 1.000001,481.468658 
z"/>
<path fill="#000000" opacity="1.000000" stroke="none" 
	d="
M478.468658,513.000000 
	C478.325226,512.353210 478.531128,511.245972 478.993011,511.126251 
	C494.279938,507.163452 504.855194,497.973816 510.467987,483.136688 
	C510.848145,482.131836 511.729523,481.316589 512.688843,480.706573 
	C513.000000,491.596527 513.000000,502.193024 513.000000,513.000000 
	C501.646637,513.000000 490.291992,513.000000 478.468658,513.000000 
z"/>
<path fill="#000000" opacity="1.000000" stroke="none" 
	d="
M513.000000,32.531342 
	C512.050964,32.042393 510.668274,31.253954 510.218719,30.101509 
	C504.535980,15.533613 493.860443,6.768683 478.966339,2.764027 
	C478.571411,2.657846 478.296906,2.103808 477.983124,1.379311 
	C489.589935,1.000000 501.179901,1.000000 513.000000,1.000000 
	C513.000000,11.353092 513.000000,21.707888 513.000000,32.531342 
z"/>
<path fill="#000000" opacity="1.000000" stroke="none" 
	d="
M35.531342,1.000000 
	C33.992062,2.169567 32.099018,3.639122 29.957300,4.459382 
	C17.290857,9.310517 8.390107,17.841650 3.655384,30.641090 
	C3.280756,31.653826 2.366767,32.467041 1.351720,33.186493 
	C1.000000,22.403479 1.000000,11.806958 1.000000,1.000000 
	C12.353362,1.000000 23.708023,1.000000 35.531342,1.000000 
z"/>
<path fill="#FF651C" opacity="1.000000" stroke="none" 
	d="
M141.599701,296.584900 
	C133.139175,303.351013 124.947945,309.882629 116.171417,316.880951 
	C117.904114,318.363434 119.315636,319.643402 120.800987,320.831024 
	C139.000000,335.381683 157.209091,349.919800 175.417282,364.458954 
	C180.354736,368.401489 182.910858,373.434143 181.677444,379.770966 
	C180.495758,385.842072 176.706116,389.790710 170.683899,391.458679 
	C165.812820,392.807831 161.377014,391.658447 157.543167,388.603424 
	C132.550079,368.687531 107.552238,348.776642 82.689819,328.698395 
	C74.872528,322.385345 74.883423,311.602753 82.696854,305.294922 
	C107.562645,285.220642 132.524063,265.263641 157.565735,245.409164 
	C164.407898,239.984299 173.402344,241.114288 178.583496,247.497849 
	C183.896454,254.043808 183.028793,263.215179 176.148865,268.864136 
	C164.830154,278.157654 153.306335,287.201355 141.599701,296.584900 
z"/>
<path fill="#F03A02" opacity="1.000000" stroke="none" 
	d="
M257.152161,277.615173 
	C265.799835,257.416290 274.425903,237.539032 283.054199,217.662766 
	C284.637512,214.015442 286.175812,210.347351 287.828979,206.731857 
	C291.696533,198.273346 300.029236,194.697556 307.893188,198.062607 
	C315.709808,201.407440 319.231476,210.205948 315.677551,218.515976 
	C296.586212,263.155975 277.390869,307.751495 257.788330,352.362762 
	C257.228149,350.557037 257.012909,348.751099 257.008850,346.944733 
	C256.958435,324.581482 256.938782,302.218109 256.911224,279.854797 
	C256.984589,279.215576 257.057983,278.576385 257.152161,277.615173 
z"/>
<path fill="#FF651C" opacity="1.000000" stroke="none" 
	d="
M256.655090,280.095764 
	C256.938782,302.218109 256.958435,324.581482 257.008850,346.944733 
	C257.012909,348.751099 257.228149,350.557037 257.615906,352.678436 
	C257.415253,354.106262 256.943970,355.218781 256.414978,356.628174 
	C246.348190,380.141357 236.368835,403.370544 226.313522,426.566864 
	C222.903137,434.434174 216.141006,438.273621 208.916702,436.690033 
	C199.547058,434.636200 194.562744,424.938446 198.434860,415.648254 
	C204.897842,400.141998 211.599243,384.735016 218.220886,369.295044 
	C230.939301,339.639008 243.672119,309.989166 256.655090,280.095764 
z"/>
<path fill="#EF3902" opacity="1.000000" stroke="none" 
	d="
M377.991333,332.994873 
	C384.622467,327.689362 390.965424,322.589478 397.828644,317.071289 
	C396.212921,315.704681 394.903442,314.544037 393.539429,313.451447 
	C375.088257,298.671631 356.625763,283.905914 338.175171,269.125366 
	C333.355621,265.264496 331.114777,260.236359 332.327271,254.146011 
	C333.533478,248.087234 337.353271,244.129715 343.382111,242.506287 
	C348.243927,241.197098 352.673340,242.368866 356.516388,245.432388 
	C381.379913,265.252533 406.261841,285.050629 430.999817,305.026733 
	C439.277222,311.710785 439.187775,322.378662 430.850983,329.101685 
	C406.229980,348.956818 381.515045,368.696411 356.736664,388.354950 
	C349.616913,394.003632 340.579620,392.983398 335.334167,386.402191 
	C329.931732,379.624054 331.110535,370.612122 338.349274,364.759705 
	C351.425262,354.188049 364.580841,343.714844 377.991333,332.994873 
z"/>
<path fill="#F8BD04" opacity="1.000000" stroke="none" 
	d="
M147.583954,87.586761 
	C140.902298,92.661926 135.119186,93.298996 129.322815,89.830338 
	C124.230232,86.782845 121.118256,80.648567 122.129684,74.974541 
	C123.284676,68.495018 127.098030,64.205109 133.520477,62.444458 
	C139.283417,60.864597 145.735855,63.381321 149.280685,68.495728 
	C153.354950,74.374008 152.876114,80.643242 147.583954,87.586761 
z"/>
<path fill="#EC3804" opacity="1.000000" stroke="none" 
	d="
M203.936981,90.204155 
	C193.989212,93.934738 185.651382,90.317673 182.755661,81.338387 
	C180.168671,73.316391 184.699799,65.075485 193.058228,62.600761 
	C199.912964,60.571239 207.441818,64.038750 210.537033,70.650848 
	C213.885620,77.804214 211.591293,84.907700 203.936981,90.204155 
z"/>
<path fill="#36D544" opacity="1.000000" stroke="none" 
	d="
M63.089653,71.443771 
	C66.153679,65.161293 70.865471,61.852421 77.525581,62.061020 
	C83.510635,62.248470 87.930634,65.298042 90.558182,70.691711 
	C93.411591,76.549026 91.925827,83.721886 87.114677,88.065277 
	C82.039551,92.646988 74.857941,93.289078 69.072281,89.678436 
	C63.060020,85.926369 60.825878,79.386520 63.089653,71.443771 
z"/>
<path fill="#0052C2" opacity="1.000000" stroke="none" 
	d="
M350.154938,92.000214 
	C339.277435,93.262749 331.712677,84.546623 331.972931,76.734825 
	C332.218323,69.368515 338.815430,62.092720 346.208954,62.060795 
	C376.683960,61.929218 407.160187,61.927505 437.635223,62.057178 
	C445.682007,62.091419 452.235474,69.474716 451.995728,77.535789 
	C451.756958,85.563332 445.026031,91.967873 436.562561,91.981583 
	C407.918945,92.028008 379.275146,91.999893 350.154938,92.000214 
z"/>
</svg>